<mxfile host="Electron" modified="2023-12-23T10:59:04.952Z" agent="Mozilla/5.0 (Macintosh; Intel Mac OS X 10_15_7) AppleWebKit/537.36 (KHTML, like Gecko) draw.io/22.1.2 Chrome/114.0.5735.289 Electron/25.9.4 Safari/537.36" etag="9AMpQ26ijB3H8uwBa4ag" version="22.1.2" type="device">
  <diagram name="Page-1" id="ECA0CsBSsFIIjPhH-5rE">
    <mxGraphModel dx="1306" dy="777" grid="1" gridSize="10" guides="1" tooltips="1" connect="1" arrows="1" fold="1" page="1" pageScale="1" pageWidth="850" pageHeight="1100" math="0" shadow="0">
      <root>
        <mxCell id="0" />
        <mxCell id="1" parent="0" />
        <mxCell id="yAEe2rApiO5yWz2X4qgN-85" style="edgeStyle=orthogonalEdgeStyle;rounded=0;orthogonalLoop=1;jettySize=auto;html=1;" edge="1" parent="1" source="LgXWe0UWpBw0L2yR1uvb-175">
          <mxGeometry relative="1" as="geometry">
            <mxPoint x="520" y="700" as="targetPoint" />
          </mxGeometry>
        </mxCell>
        <mxCell id="LgXWe0UWpBw0L2yR1uvb-175" value="K3" style="ellipse;whiteSpace=wrap;html=1;container=0;" parent="1" vertex="1">
          <mxGeometry x="460" y="680" width="40" height="40" as="geometry" />
        </mxCell>
        <mxCell id="LgXWe0UWpBw0L2yR1uvb-164" value="" style="endArrow=none;html=1;rounded=0;" parent="1" edge="1">
          <mxGeometry width="50" height="50" relative="1" as="geometry">
            <mxPoint x="390" y="669.86" as="sourcePoint" />
            <mxPoint x="440" y="669.86" as="targetPoint" />
          </mxGeometry>
        </mxCell>
        <mxCell id="LgXWe0UWpBw0L2yR1uvb-165" value="" style="endArrow=none;html=1;rounded=0;" parent="1" edge="1">
          <mxGeometry width="50" height="50" relative="1" as="geometry">
            <mxPoint x="440" y="669.86" as="sourcePoint" />
            <mxPoint x="440" y="729.86" as="targetPoint" />
          </mxGeometry>
        </mxCell>
        <mxCell id="LgXWe0UWpBw0L2yR1uvb-166" value="" style="endArrow=none;html=1;rounded=0;" parent="1" edge="1">
          <mxGeometry width="50" height="50" relative="1" as="geometry">
            <mxPoint x="390" y="729.86" as="sourcePoint" />
            <mxPoint x="440" y="729.86" as="targetPoint" />
          </mxGeometry>
        </mxCell>
        <mxCell id="LgXWe0UWpBw0L2yR1uvb-167" value="" style="endArrow=none;html=1;rounded=0;" parent="1" edge="1">
          <mxGeometry width="50" height="50" relative="1" as="geometry">
            <mxPoint x="420" y="679.86" as="sourcePoint" />
            <mxPoint x="420" y="719.86" as="targetPoint" />
          </mxGeometry>
        </mxCell>
        <mxCell id="LgXWe0UWpBw0L2yR1uvb-168" value="" style="endArrow=none;html=1;rounded=0;" parent="1" edge="1">
          <mxGeometry width="50" height="50" relative="1" as="geometry">
            <mxPoint x="410" y="679.86" as="sourcePoint" />
            <mxPoint x="410" y="719.86" as="targetPoint" />
          </mxGeometry>
        </mxCell>
        <mxCell id="LgXWe0UWpBw0L2yR1uvb-169" value="" style="endArrow=none;html=1;rounded=0;" parent="1" edge="1">
          <mxGeometry width="50" height="50" relative="1" as="geometry">
            <mxPoint x="400" y="679.86" as="sourcePoint" />
            <mxPoint x="400" y="719.86" as="targetPoint" />
          </mxGeometry>
        </mxCell>
        <mxCell id="LgXWe0UWpBw0L2yR1uvb-170" value="" style="endArrow=none;html=1;rounded=0;" parent="1" edge="1">
          <mxGeometry width="50" height="50" relative="1" as="geometry">
            <mxPoint x="430" y="679.86" as="sourcePoint" />
            <mxPoint x="430" y="719.86" as="targetPoint" />
          </mxGeometry>
        </mxCell>
        <mxCell id="yAEe2rApiO5yWz2X4qgN-28" style="edgeStyle=orthogonalEdgeStyle;rounded=0;orthogonalLoop=1;jettySize=auto;html=1;exitX=1;exitY=0.5;exitDx=0;exitDy=0;" edge="1" parent="1" source="yAEe2rApiO5yWz2X4qgN-114">
          <mxGeometry relative="1" as="geometry">
            <mxPoint x="840.03" y="700" as="targetPoint" />
            <Array as="points">
              <mxPoint x="820.03" y="700" />
              <mxPoint x="820.03" y="700" />
            </Array>
          </mxGeometry>
        </mxCell>
        <mxCell id="yAEe2rApiO5yWz2X4qgN-6" style="edgeStyle=orthogonalEdgeStyle;rounded=0;orthogonalLoop=1;jettySize=auto;html=1;" edge="1" parent="1" source="LgXWe0UWpBw0L2yR1uvb-212">
          <mxGeometry relative="1" as="geometry">
            <mxPoint x="390" y="700" as="targetPoint" />
            <Array as="points">
              <mxPoint x="990" y="670" />
              <mxPoint x="990" y="700" />
              <mxPoint x="1010" y="700" />
              <mxPoint x="1010" y="780" />
              <mxPoint x="360" y="780" />
              <mxPoint x="360" y="700" />
            </Array>
          </mxGeometry>
        </mxCell>
        <mxCell id="LgXWe0UWpBw0L2yR1uvb-212" value="K5" style="ellipse;whiteSpace=wrap;html=1;container=0;" parent="1" vertex="1">
          <mxGeometry x="929.03" y="650" width="40" height="40" as="geometry" />
        </mxCell>
        <mxCell id="yAEe2rApiO5yWz2X4qgN-5" style="edgeStyle=orthogonalEdgeStyle;rounded=0;orthogonalLoop=1;jettySize=auto;html=1;" edge="1" parent="1" source="LgXWe0UWpBw0L2yR1uvb-216">
          <mxGeometry relative="1" as="geometry">
            <mxPoint x="390" y="700" as="targetPoint" />
            <Array as="points">
              <mxPoint x="990" y="730" />
              <mxPoint x="990" y="700" />
              <mxPoint x="1010" y="700" />
              <mxPoint x="1010" y="780" />
              <mxPoint x="360" y="780" />
              <mxPoint x="360" y="700" />
            </Array>
          </mxGeometry>
        </mxCell>
        <mxCell id="LgXWe0UWpBw0L2yR1uvb-216" value="K6" style="ellipse;whiteSpace=wrap;html=1;container=0;" parent="1" vertex="1">
          <mxGeometry x="929.03" y="710" width="40" height="40" as="geometry" />
        </mxCell>
        <mxCell id="LgXWe0UWpBw0L2yR1uvb-224" value="" style="endArrow=none;html=1;rounded=0;entryX=0;entryY=0.5;entryDx=0;entryDy=0;" parent="1" edge="1">
          <mxGeometry width="50" height="50" relative="1" as="geometry">
            <mxPoint x="909.03" y="670" as="sourcePoint" />
            <mxPoint x="929.03" y="730" as="targetPoint" />
            <Array as="points">
              <mxPoint x="909.03" y="730" />
            </Array>
          </mxGeometry>
        </mxCell>
        <mxCell id="D12xZPLdowFTtR5csTNd-15" style="edgeStyle=orthogonalEdgeStyle;rounded=0;orthogonalLoop=1;jettySize=auto;html=1;" parent="1" source="D12xZPLdowFTtR5csTNd-3" target="D12xZPLdowFTtR5csTNd-4" edge="1">
          <mxGeometry relative="1" as="geometry" />
        </mxCell>
        <mxCell id="D12xZPLdowFTtR5csTNd-3" value="Початок" style="ellipse;whiteSpace=wrap;html=1;" parent="1" vertex="1">
          <mxGeometry x="1224.92" y="90" width="120" height="80" as="geometry" />
        </mxCell>
        <mxCell id="D12xZPLdowFTtR5csTNd-16" style="edgeStyle=orthogonalEdgeStyle;rounded=0;orthogonalLoop=1;jettySize=auto;html=1;" parent="1" source="D12xZPLdowFTtR5csTNd-4" target="D12xZPLdowFTtR5csTNd-5" edge="1">
          <mxGeometry relative="1" as="geometry" />
        </mxCell>
        <mxCell id="D12xZPLdowFTtR5csTNd-4" value="Надходження вантажівки" style="rounded=0;whiteSpace=wrap;html=1;" parent="1" vertex="1">
          <mxGeometry x="1224.92" y="190" width="120" height="60" as="geometry" />
        </mxCell>
        <mxCell id="D12xZPLdowFTtR5csTNd-17" style="edgeStyle=orthogonalEdgeStyle;rounded=0;orthogonalLoop=1;jettySize=auto;html=1;" parent="1" source="D12xZPLdowFTtR5csTNd-5" target="D12xZPLdowFTtR5csTNd-6" edge="1">
          <mxGeometry relative="1" as="geometry" />
        </mxCell>
        <mxCell id="D12xZPLdowFTtR5csTNd-5" value="Черга&lt;br&gt;вантаження" style="ellipse;whiteSpace=wrap;html=1;aspect=fixed;" parent="1" vertex="1">
          <mxGeometry x="1244.92" y="270" width="80" height="80" as="geometry" />
        </mxCell>
        <mxCell id="1Q4RQR-W37dJHyRFb7e8-1" style="edgeStyle=orthogonalEdgeStyle;rounded=0;orthogonalLoop=1;jettySize=auto;html=1;entryX=0.5;entryY=0;entryDx=0;entryDy=0;" parent="1" source="D12xZPLdowFTtR5csTNd-6" target="D12xZPLdowFTtR5csTNd-8" edge="1">
          <mxGeometry relative="1" as="geometry" />
        </mxCell>
        <mxCell id="D12xZPLdowFTtR5csTNd-6" value="Процес вантаження" style="rounded=0;whiteSpace=wrap;html=1;" parent="1" vertex="1">
          <mxGeometry x="1224.92" y="370" width="120" height="60" as="geometry" />
        </mxCell>
        <mxCell id="D12xZPLdowFTtR5csTNd-20" style="edgeStyle=orthogonalEdgeStyle;rounded=0;orthogonalLoop=1;jettySize=auto;html=1;" parent="1" source="D12xZPLdowFTtR5csTNd-8" target="D12xZPLdowFTtR5csTNd-10" edge="1">
          <mxGeometry relative="1" as="geometry" />
        </mxCell>
        <mxCell id="D12xZPLdowFTtR5csTNd-8" value="Проїзд до дробівки" style="rounded=0;whiteSpace=wrap;html=1;" parent="1" vertex="1">
          <mxGeometry x="1224.92" y="450" width="120" height="60" as="geometry" />
        </mxCell>
        <mxCell id="D12xZPLdowFTtR5csTNd-21" style="edgeStyle=orthogonalEdgeStyle;rounded=0;orthogonalLoop=1;jettySize=auto;html=1;" parent="1" source="D12xZPLdowFTtR5csTNd-10" target="D12xZPLdowFTtR5csTNd-11" edge="1">
          <mxGeometry relative="1" as="geometry" />
        </mxCell>
        <mxCell id="D12xZPLdowFTtR5csTNd-10" value="Черга дробіння" style="ellipse;whiteSpace=wrap;html=1;aspect=fixed;" parent="1" vertex="1">
          <mxGeometry x="1244.92" y="530" width="80" height="80" as="geometry" />
        </mxCell>
        <mxCell id="1Q4RQR-W37dJHyRFb7e8-2" style="edgeStyle=orthogonalEdgeStyle;rounded=0;orthogonalLoop=1;jettySize=auto;html=1;" parent="1" source="D12xZPLdowFTtR5csTNd-11" target="D12xZPLdowFTtR5csTNd-13" edge="1">
          <mxGeometry relative="1" as="geometry" />
        </mxCell>
        <mxCell id="D12xZPLdowFTtR5csTNd-11" value="Процес дробіння" style="rounded=0;whiteSpace=wrap;html=1;" parent="1" vertex="1">
          <mxGeometry x="1224.92" y="630" width="120" height="60" as="geometry" />
        </mxCell>
        <mxCell id="D12xZPLdowFTtR5csTNd-14" style="edgeStyle=orthogonalEdgeStyle;rounded=0;orthogonalLoop=1;jettySize=auto;html=1;entryX=0;entryY=0.5;entryDx=0;entryDy=0;" parent="1" source="D12xZPLdowFTtR5csTNd-13" target="D12xZPLdowFTtR5csTNd-4" edge="1">
          <mxGeometry relative="1" as="geometry">
            <Array as="points">
              <mxPoint x="1285" y="790" />
              <mxPoint x="1205" y="790" />
              <mxPoint x="1205" y="220" />
            </Array>
          </mxGeometry>
        </mxCell>
        <mxCell id="D12xZPLdowFTtR5csTNd-13" value="Повернення" style="rounded=0;whiteSpace=wrap;html=1;" parent="1" vertex="1">
          <mxGeometry x="1224.92" y="710" width="120" height="60" as="geometry" />
        </mxCell>
        <mxCell id="1Q4RQR-W37dJHyRFb7e8-6" value="&lt;font style=&quot;font-size: 8px;&quot;&gt;t&lt;sub&gt;1;20&lt;/sub&gt;&lt;i&gt;&amp;nbsp;= exp(5)&lt;br&gt;t&lt;sub&gt;1;50&lt;/sub&gt; = exp(10)&lt;br&gt;&lt;/i&gt;&lt;/font&gt;" style="text;html=1;strokeColor=none;fillColor=none;align=center;verticalAlign=middle;whiteSpace=wrap;rounded=0;" parent="1" vertex="1">
          <mxGeometry x="380" y="730" width="60" height="30" as="geometry" />
        </mxCell>
        <mxCell id="1Q4RQR-W37dJHyRFb7e8-7" value="&lt;font style=&quot;font-size: 8px;&quot;&gt;t&lt;sub&gt;2;20&lt;/sub&gt;&lt;i&gt;&amp;nbsp;= 2.5&lt;br&gt;t&lt;sub&gt;2;50&lt;/sub&gt; = 3&lt;br&gt;&lt;/i&gt;&lt;/font&gt;" style="text;html=1;strokeColor=none;fillColor=none;align=center;verticalAlign=middle;whiteSpace=wrap;rounded=0;" parent="1" vertex="1">
          <mxGeometry x="510" y="730" width="60" height="30" as="geometry" />
        </mxCell>
        <mxCell id="1Q4RQR-W37dJHyRFb7e8-10" value="" style="endArrow=none;html=1;rounded=0;entryX=0;entryY=0.5;entryDx=0;entryDy=0;" parent="1" target="LgXWe0UWpBw0L2yR1uvb-175" edge="1">
          <mxGeometry width="50" height="50" relative="1" as="geometry">
            <mxPoint x="440" y="700" as="sourcePoint" />
            <mxPoint x="470" y="620" as="targetPoint" />
            <Array as="points">
              <mxPoint x="440" y="700" />
            </Array>
          </mxGeometry>
        </mxCell>
        <mxCell id="yAEe2rApiO5yWz2X4qgN-20" value="" style="group" vertex="1" connectable="0" parent="1">
          <mxGeometry x="839.03" y="670" width="50" height="60" as="geometry" />
        </mxCell>
        <mxCell id="yAEe2rApiO5yWz2X4qgN-22" value="" style="endArrow=none;html=1;rounded=0;" edge="1" parent="yAEe2rApiO5yWz2X4qgN-20">
          <mxGeometry width="50" height="50" relative="1" as="geometry">
            <mxPoint x="50" as="sourcePoint" />
            <mxPoint x="50" y="60" as="targetPoint" />
          </mxGeometry>
        </mxCell>
        <mxCell id="yAEe2rApiO5yWz2X4qgN-23" value="" style="endArrow=none;html=1;rounded=0;" edge="1" parent="yAEe2rApiO5yWz2X4qgN-20">
          <mxGeometry width="50" height="50" relative="1" as="geometry">
            <mxPoint y="60" as="sourcePoint" />
            <mxPoint x="50" y="60" as="targetPoint" />
          </mxGeometry>
        </mxCell>
        <mxCell id="yAEe2rApiO5yWz2X4qgN-24" value="" style="endArrow=none;html=1;rounded=0;" edge="1" parent="yAEe2rApiO5yWz2X4qgN-20">
          <mxGeometry width="50" height="50" relative="1" as="geometry">
            <mxPoint x="30" y="10" as="sourcePoint" />
            <mxPoint x="30" y="50" as="targetPoint" />
          </mxGeometry>
        </mxCell>
        <mxCell id="yAEe2rApiO5yWz2X4qgN-25" value="" style="endArrow=none;html=1;rounded=0;" edge="1" parent="yAEe2rApiO5yWz2X4qgN-20">
          <mxGeometry width="50" height="50" relative="1" as="geometry">
            <mxPoint x="20" y="10" as="sourcePoint" />
            <mxPoint x="20" y="50" as="targetPoint" />
          </mxGeometry>
        </mxCell>
        <mxCell id="yAEe2rApiO5yWz2X4qgN-26" value="" style="endArrow=none;html=1;rounded=0;" edge="1" parent="yAEe2rApiO5yWz2X4qgN-20">
          <mxGeometry width="50" height="50" relative="1" as="geometry">
            <mxPoint x="10" y="10" as="sourcePoint" />
            <mxPoint x="10" y="50" as="targetPoint" />
          </mxGeometry>
        </mxCell>
        <mxCell id="yAEe2rApiO5yWz2X4qgN-27" value="" style="endArrow=none;html=1;rounded=0;" edge="1" parent="yAEe2rApiO5yWz2X4qgN-20">
          <mxGeometry width="50" height="50" relative="1" as="geometry">
            <mxPoint x="40" y="10" as="sourcePoint" />
            <mxPoint x="40" y="50" as="targetPoint" />
          </mxGeometry>
        </mxCell>
        <mxCell id="yAEe2rApiO5yWz2X4qgN-39" value="" style="endArrow=none;html=1;rounded=0;entryX=0;entryY=0.5;entryDx=0;entryDy=0;" edge="1" parent="yAEe2rApiO5yWz2X4qgN-20" target="LgXWe0UWpBw0L2yR1uvb-212">
          <mxGeometry width="50" height="50" relative="1" as="geometry">
            <mxPoint x="50" y="30" as="sourcePoint" />
            <mxPoint x="70" y="90" as="targetPoint" />
            <Array as="points">
              <mxPoint x="70" y="30" />
              <mxPoint x="70" />
            </Array>
          </mxGeometry>
        </mxCell>
        <mxCell id="yAEe2rApiO5yWz2X4qgN-21" value="" style="endArrow=none;html=1;rounded=0;" edge="1" parent="1">
          <mxGeometry width="50" height="50" relative="1" as="geometry">
            <mxPoint x="839.03" y="670" as="sourcePoint" />
            <mxPoint x="889.03" y="670" as="targetPoint" />
          </mxGeometry>
        </mxCell>
        <mxCell id="yAEe2rApiO5yWz2X4qgN-44" value="&lt;font style=&quot;font-size: 8px;&quot;&gt;t&lt;sub&gt;4;20&lt;/sub&gt;&lt;i&gt;&amp;nbsp;= 1.5&lt;br&gt;t&lt;sub&gt;4;50&lt;/sub&gt; = 2&lt;br&gt;&lt;/i&gt;&lt;/font&gt;" style="text;html=1;strokeColor=none;fillColor=none;align=center;verticalAlign=middle;whiteSpace=wrap;rounded=0;" vertex="1" parent="1">
          <mxGeometry x="829" y="730" width="60" height="30" as="geometry" />
        </mxCell>
        <mxCell id="yAEe2rApiO5yWz2X4qgN-92" style="edgeStyle=orthogonalEdgeStyle;rounded=0;orthogonalLoop=1;jettySize=auto;html=1;" edge="1" parent="1" source="yAEe2rApiO5yWz2X4qgN-48">
          <mxGeometry relative="1" as="geometry">
            <mxPoint x="710" y="700" as="targetPoint" />
            <Array as="points">
              <mxPoint x="670" y="670" />
              <mxPoint x="670" y="700" />
            </Array>
          </mxGeometry>
        </mxCell>
        <mxCell id="yAEe2rApiO5yWz2X4qgN-48" value="K5" style="ellipse;whiteSpace=wrap;html=1;container=0;" vertex="1" parent="1">
          <mxGeometry x="610" y="650" width="40" height="40" as="geometry" />
        </mxCell>
        <mxCell id="yAEe2rApiO5yWz2X4qgN-93" style="edgeStyle=orthogonalEdgeStyle;rounded=0;orthogonalLoop=1;jettySize=auto;html=1;" edge="1" parent="1" source="yAEe2rApiO5yWz2X4qgN-50">
          <mxGeometry relative="1" as="geometry">
            <mxPoint x="710" y="700" as="targetPoint" />
            <Array as="points">
              <mxPoint x="670" y="730" />
              <mxPoint x="670" y="700" />
            </Array>
          </mxGeometry>
        </mxCell>
        <mxCell id="yAEe2rApiO5yWz2X4qgN-50" value="K6" style="ellipse;whiteSpace=wrap;html=1;container=0;" vertex="1" parent="1">
          <mxGeometry x="610" y="710" width="40" height="40" as="geometry" />
        </mxCell>
        <mxCell id="yAEe2rApiO5yWz2X4qgN-54" value="" style="endArrow=none;html=1;rounded=0;entryX=0;entryY=0.5;entryDx=0;entryDy=0;" edge="1" parent="1">
          <mxGeometry width="50" height="50" relative="1" as="geometry">
            <mxPoint x="590" y="670" as="sourcePoint" />
            <mxPoint x="610" y="730" as="targetPoint" />
            <Array as="points">
              <mxPoint x="590" y="730" />
            </Array>
          </mxGeometry>
        </mxCell>
        <mxCell id="yAEe2rApiO5yWz2X4qgN-62" value="" style="group" vertex="1" connectable="0" parent="1">
          <mxGeometry x="520" y="670" width="50" height="60" as="geometry" />
        </mxCell>
        <mxCell id="yAEe2rApiO5yWz2X4qgN-63" value="" style="endArrow=none;html=1;rounded=0;" edge="1" parent="yAEe2rApiO5yWz2X4qgN-62">
          <mxGeometry width="50" height="50" relative="1" as="geometry">
            <mxPoint x="50" as="sourcePoint" />
            <mxPoint x="50" y="60" as="targetPoint" />
          </mxGeometry>
        </mxCell>
        <mxCell id="yAEe2rApiO5yWz2X4qgN-64" value="" style="endArrow=none;html=1;rounded=0;" edge="1" parent="yAEe2rApiO5yWz2X4qgN-62">
          <mxGeometry width="50" height="50" relative="1" as="geometry">
            <mxPoint y="60" as="sourcePoint" />
            <mxPoint x="50" y="60" as="targetPoint" />
          </mxGeometry>
        </mxCell>
        <mxCell id="yAEe2rApiO5yWz2X4qgN-65" value="" style="endArrow=none;html=1;rounded=0;" edge="1" parent="yAEe2rApiO5yWz2X4qgN-62">
          <mxGeometry width="50" height="50" relative="1" as="geometry">
            <mxPoint x="30" y="10" as="sourcePoint" />
            <mxPoint x="30" y="50" as="targetPoint" />
          </mxGeometry>
        </mxCell>
        <mxCell id="yAEe2rApiO5yWz2X4qgN-66" value="" style="endArrow=none;html=1;rounded=0;" edge="1" parent="yAEe2rApiO5yWz2X4qgN-62">
          <mxGeometry width="50" height="50" relative="1" as="geometry">
            <mxPoint x="20" y="10" as="sourcePoint" />
            <mxPoint x="20" y="50" as="targetPoint" />
          </mxGeometry>
        </mxCell>
        <mxCell id="yAEe2rApiO5yWz2X4qgN-67" value="" style="endArrow=none;html=1;rounded=0;" edge="1" parent="yAEe2rApiO5yWz2X4qgN-62">
          <mxGeometry width="50" height="50" relative="1" as="geometry">
            <mxPoint x="10" y="10" as="sourcePoint" />
            <mxPoint x="10" y="50" as="targetPoint" />
          </mxGeometry>
        </mxCell>
        <mxCell id="yAEe2rApiO5yWz2X4qgN-68" value="" style="endArrow=none;html=1;rounded=0;" edge="1" parent="yAEe2rApiO5yWz2X4qgN-62">
          <mxGeometry width="50" height="50" relative="1" as="geometry">
            <mxPoint x="40" y="10" as="sourcePoint" />
            <mxPoint x="40" y="50" as="targetPoint" />
          </mxGeometry>
        </mxCell>
        <mxCell id="yAEe2rApiO5yWz2X4qgN-69" value="" style="endArrow=none;html=1;rounded=0;entryX=0;entryY=0.5;entryDx=0;entryDy=0;" edge="1" parent="yAEe2rApiO5yWz2X4qgN-62" target="yAEe2rApiO5yWz2X4qgN-48">
          <mxGeometry width="50" height="50" relative="1" as="geometry">
            <mxPoint x="50" y="30" as="sourcePoint" />
            <mxPoint x="70" y="90" as="targetPoint" />
            <Array as="points">
              <mxPoint x="70" y="30" />
              <mxPoint x="70" />
            </Array>
          </mxGeometry>
        </mxCell>
        <mxCell id="yAEe2rApiO5yWz2X4qgN-79" value="" style="endArrow=none;html=1;rounded=0;" edge="1" parent="1">
          <mxGeometry width="50" height="50" relative="1" as="geometry">
            <mxPoint x="520" y="670" as="sourcePoint" />
            <mxPoint x="570" y="670" as="targetPoint" />
          </mxGeometry>
        </mxCell>
        <mxCell id="yAEe2rApiO5yWz2X4qgN-99" value="2" style="text;html=1;strokeColor=none;fillColor=none;align=center;verticalAlign=middle;whiteSpace=wrap;rounded=0;" vertex="1" parent="1">
          <mxGeometry x="380" y="640" width="60" height="30" as="geometry" />
        </mxCell>
        <mxCell id="yAEe2rApiO5yWz2X4qgN-113" style="edgeStyle=orthogonalEdgeStyle;rounded=0;orthogonalLoop=1;jettySize=auto;html=1;endArrow=none;endFill=0;" edge="1" parent="1" source="yAEe2rApiO5yWz2X4qgN-114">
          <mxGeometry relative="1" as="geometry">
            <mxPoint x="760.03" y="700" as="targetPoint" />
          </mxGeometry>
        </mxCell>
        <mxCell id="yAEe2rApiO5yWz2X4qgN-114" value="K3" style="ellipse;whiteSpace=wrap;html=1;container=0;" vertex="1" parent="1">
          <mxGeometry x="780.03" y="680" width="40" height="40" as="geometry" />
        </mxCell>
        <mxCell id="yAEe2rApiO5yWz2X4qgN-115" value="&lt;font style=&quot;font-size: 8px;&quot;&gt;t&lt;sub&gt;3;20&lt;/sub&gt;&lt;i&gt;&amp;nbsp;= exp(5)&lt;br&gt;t&lt;sub&gt;3;50&lt;/sub&gt; = exp(4)&lt;br&gt;&lt;/i&gt;&lt;/font&gt;" style="text;html=1;strokeColor=none;fillColor=none;align=center;verticalAlign=middle;whiteSpace=wrap;rounded=0;" vertex="1" parent="1">
          <mxGeometry x="700" y="730" width="60" height="30" as="geometry" />
        </mxCell>
        <mxCell id="yAEe2rApiO5yWz2X4qgN-116" value="" style="endArrow=none;html=1;rounded=0;" edge="1" parent="1">
          <mxGeometry width="50" height="50" relative="1" as="geometry">
            <mxPoint x="710.03" y="669.67" as="sourcePoint" />
            <mxPoint x="760.03" y="669.67" as="targetPoint" />
          </mxGeometry>
        </mxCell>
        <mxCell id="yAEe2rApiO5yWz2X4qgN-117" value="" style="endArrow=none;html=1;rounded=0;" edge="1" parent="1">
          <mxGeometry width="50" height="50" relative="1" as="geometry">
            <mxPoint x="760.03" y="670" as="sourcePoint" />
            <mxPoint x="760.03" y="730" as="targetPoint" />
          </mxGeometry>
        </mxCell>
        <mxCell id="yAEe2rApiO5yWz2X4qgN-118" value="" style="endArrow=none;html=1;rounded=0;" edge="1" parent="1">
          <mxGeometry width="50" height="50" relative="1" as="geometry">
            <mxPoint x="710.03" y="730" as="sourcePoint" />
            <mxPoint x="760.03" y="730" as="targetPoint" />
          </mxGeometry>
        </mxCell>
        <mxCell id="yAEe2rApiO5yWz2X4qgN-119" value="" style="endArrow=none;html=1;rounded=0;" edge="1" parent="1">
          <mxGeometry width="50" height="50" relative="1" as="geometry">
            <mxPoint x="740.03" y="680" as="sourcePoint" />
            <mxPoint x="740.03" y="720" as="targetPoint" />
          </mxGeometry>
        </mxCell>
        <mxCell id="yAEe2rApiO5yWz2X4qgN-120" value="" style="endArrow=none;html=1;rounded=0;" edge="1" parent="1">
          <mxGeometry width="50" height="50" relative="1" as="geometry">
            <mxPoint x="730.03" y="680" as="sourcePoint" />
            <mxPoint x="730.03" y="720" as="targetPoint" />
          </mxGeometry>
        </mxCell>
        <mxCell id="yAEe2rApiO5yWz2X4qgN-121" value="" style="endArrow=none;html=1;rounded=0;" edge="1" parent="1">
          <mxGeometry width="50" height="50" relative="1" as="geometry">
            <mxPoint x="720.03" y="680" as="sourcePoint" />
            <mxPoint x="720.03" y="720" as="targetPoint" />
          </mxGeometry>
        </mxCell>
        <mxCell id="yAEe2rApiO5yWz2X4qgN-122" value="" style="endArrow=none;html=1;rounded=0;" edge="1" parent="1">
          <mxGeometry width="50" height="50" relative="1" as="geometry">
            <mxPoint x="750.03" y="680" as="sourcePoint" />
            <mxPoint x="750.03" y="720" as="targetPoint" />
          </mxGeometry>
        </mxCell>
        <mxCell id="yAEe2rApiO5yWz2X4qgN-123" style="edgeStyle=orthogonalEdgeStyle;rounded=0;orthogonalLoop=1;jettySize=auto;html=1;" edge="1" parent="1" source="yAEe2rApiO5yWz2X4qgN-124">
          <mxGeometry relative="1" as="geometry">
            <mxPoint x="520" y="550.01" as="targetPoint" />
          </mxGeometry>
        </mxCell>
        <mxCell id="yAEe2rApiO5yWz2X4qgN-124" value="K2" style="ellipse;whiteSpace=wrap;html=1;container=0;" vertex="1" parent="1">
          <mxGeometry x="460" y="530.01" width="40" height="40" as="geometry" />
        </mxCell>
        <mxCell id="yAEe2rApiO5yWz2X4qgN-125" value="" style="endArrow=none;html=1;rounded=0;" edge="1" parent="1">
          <mxGeometry width="50" height="50" relative="1" as="geometry">
            <mxPoint x="390" y="519.87" as="sourcePoint" />
            <mxPoint x="440" y="519.87" as="targetPoint" />
          </mxGeometry>
        </mxCell>
        <mxCell id="yAEe2rApiO5yWz2X4qgN-126" value="" style="endArrow=none;html=1;rounded=0;" edge="1" parent="1">
          <mxGeometry width="50" height="50" relative="1" as="geometry">
            <mxPoint x="440" y="519.87" as="sourcePoint" />
            <mxPoint x="440" y="579.87" as="targetPoint" />
          </mxGeometry>
        </mxCell>
        <mxCell id="yAEe2rApiO5yWz2X4qgN-127" value="" style="endArrow=none;html=1;rounded=0;" edge="1" parent="1">
          <mxGeometry width="50" height="50" relative="1" as="geometry">
            <mxPoint x="390" y="579.87" as="sourcePoint" />
            <mxPoint x="440" y="579.87" as="targetPoint" />
          </mxGeometry>
        </mxCell>
        <mxCell id="yAEe2rApiO5yWz2X4qgN-128" value="" style="endArrow=none;html=1;rounded=0;" edge="1" parent="1">
          <mxGeometry width="50" height="50" relative="1" as="geometry">
            <mxPoint x="420" y="529.87" as="sourcePoint" />
            <mxPoint x="420" y="569.87" as="targetPoint" />
          </mxGeometry>
        </mxCell>
        <mxCell id="yAEe2rApiO5yWz2X4qgN-129" value="" style="endArrow=none;html=1;rounded=0;" edge="1" parent="1">
          <mxGeometry width="50" height="50" relative="1" as="geometry">
            <mxPoint x="410" y="529.87" as="sourcePoint" />
            <mxPoint x="410" y="569.87" as="targetPoint" />
          </mxGeometry>
        </mxCell>
        <mxCell id="yAEe2rApiO5yWz2X4qgN-130" value="" style="endArrow=none;html=1;rounded=0;" edge="1" parent="1">
          <mxGeometry width="50" height="50" relative="1" as="geometry">
            <mxPoint x="400" y="529.87" as="sourcePoint" />
            <mxPoint x="400" y="569.87" as="targetPoint" />
          </mxGeometry>
        </mxCell>
        <mxCell id="yAEe2rApiO5yWz2X4qgN-131" value="" style="endArrow=none;html=1;rounded=0;" edge="1" parent="1">
          <mxGeometry width="50" height="50" relative="1" as="geometry">
            <mxPoint x="430" y="529.87" as="sourcePoint" />
            <mxPoint x="430" y="569.87" as="targetPoint" />
          </mxGeometry>
        </mxCell>
        <mxCell id="yAEe2rApiO5yWz2X4qgN-132" style="edgeStyle=orthogonalEdgeStyle;rounded=0;orthogonalLoop=1;jettySize=auto;html=1;exitX=1;exitY=0.5;exitDx=0;exitDy=0;" edge="1" parent="1" source="yAEe2rApiO5yWz2X4qgN-167">
          <mxGeometry relative="1" as="geometry">
            <mxPoint x="840.03" y="550.01" as="targetPoint" />
            <Array as="points">
              <mxPoint x="820.03" y="550.01" />
              <mxPoint x="820.03" y="550.01" />
            </Array>
          </mxGeometry>
        </mxCell>
        <mxCell id="yAEe2rApiO5yWz2X4qgN-133" style="edgeStyle=orthogonalEdgeStyle;rounded=0;orthogonalLoop=1;jettySize=auto;html=1;" edge="1" parent="1" source="yAEe2rApiO5yWz2X4qgN-134">
          <mxGeometry relative="1" as="geometry">
            <mxPoint x="390" y="550.01" as="targetPoint" />
            <Array as="points">
              <mxPoint x="990" y="520" />
              <mxPoint x="990" y="550" />
              <mxPoint x="1010" y="550" />
              <mxPoint x="1010" y="630" />
              <mxPoint x="360" y="630" />
              <mxPoint x="360" y="550" />
            </Array>
          </mxGeometry>
        </mxCell>
        <mxCell id="yAEe2rApiO5yWz2X4qgN-134" value="К3" style="ellipse;whiteSpace=wrap;html=1;container=0;" vertex="1" parent="1">
          <mxGeometry x="929.03" y="500.01" width="40" height="40" as="geometry" />
        </mxCell>
        <mxCell id="yAEe2rApiO5yWz2X4qgN-135" style="edgeStyle=orthogonalEdgeStyle;rounded=0;orthogonalLoop=1;jettySize=auto;html=1;" edge="1" parent="1" source="yAEe2rApiO5yWz2X4qgN-136">
          <mxGeometry relative="1" as="geometry">
            <mxPoint x="390" y="550.01" as="targetPoint" />
            <Array as="points">
              <mxPoint x="990" y="580" />
              <mxPoint x="990" y="550" />
              <mxPoint x="1010" y="550" />
              <mxPoint x="1010" y="630" />
              <mxPoint x="360" y="630" />
              <mxPoint x="360" y="550" />
            </Array>
          </mxGeometry>
        </mxCell>
        <mxCell id="yAEe2rApiO5yWz2X4qgN-136" value="К4" style="ellipse;whiteSpace=wrap;html=1;container=0;" vertex="1" parent="1">
          <mxGeometry x="929.03" y="560.01" width="40" height="40" as="geometry" />
        </mxCell>
        <mxCell id="yAEe2rApiO5yWz2X4qgN-137" value="" style="endArrow=none;html=1;rounded=0;entryX=0;entryY=0.5;entryDx=0;entryDy=0;" edge="1" parent="1">
          <mxGeometry width="50" height="50" relative="1" as="geometry">
            <mxPoint x="909.03" y="520.01" as="sourcePoint" />
            <mxPoint x="929.03" y="580.01" as="targetPoint" />
            <Array as="points">
              <mxPoint x="909.03" y="580.01" />
            </Array>
          </mxGeometry>
        </mxCell>
        <mxCell id="yAEe2rApiO5yWz2X4qgN-138" value="&lt;font style=&quot;font-size: 8px;&quot;&gt;t&lt;sub&gt;1;20&lt;/sub&gt;&lt;i&gt;&amp;nbsp;= exp(5)&lt;br&gt;t&lt;sub&gt;1;50&lt;/sub&gt; = exp(10)&lt;br&gt;&lt;/i&gt;&lt;/font&gt;" style="text;html=1;strokeColor=none;fillColor=none;align=center;verticalAlign=middle;whiteSpace=wrap;rounded=0;" vertex="1" parent="1">
          <mxGeometry x="380" y="580.01" width="60" height="30" as="geometry" />
        </mxCell>
        <mxCell id="yAEe2rApiO5yWz2X4qgN-139" value="&lt;font style=&quot;font-size: 8px;&quot;&gt;t&lt;sub&gt;2;20&lt;/sub&gt;&lt;i&gt;&amp;nbsp;= 2.5&lt;br&gt;t&lt;sub&gt;2;50&lt;/sub&gt; = 3&lt;br&gt;&lt;/i&gt;&lt;/font&gt;" style="text;html=1;strokeColor=none;fillColor=none;align=center;verticalAlign=middle;whiteSpace=wrap;rounded=0;" vertex="1" parent="1">
          <mxGeometry x="510" y="580.01" width="60" height="30" as="geometry" />
        </mxCell>
        <mxCell id="yAEe2rApiO5yWz2X4qgN-140" value="" style="endArrow=none;html=1;rounded=0;entryX=0;entryY=0.5;entryDx=0;entryDy=0;" edge="1" parent="1" target="yAEe2rApiO5yWz2X4qgN-124">
          <mxGeometry width="50" height="50" relative="1" as="geometry">
            <mxPoint x="440" y="550.01" as="sourcePoint" />
            <mxPoint x="470" y="470.01" as="targetPoint" />
            <Array as="points">
              <mxPoint x="440" y="550.01" />
            </Array>
          </mxGeometry>
        </mxCell>
        <mxCell id="yAEe2rApiO5yWz2X4qgN-141" value="" style="group" vertex="1" connectable="0" parent="1">
          <mxGeometry x="839.03" y="520.01" width="50" height="60" as="geometry" />
        </mxCell>
        <mxCell id="yAEe2rApiO5yWz2X4qgN-142" value="" style="endArrow=none;html=1;rounded=0;" edge="1" parent="yAEe2rApiO5yWz2X4qgN-141">
          <mxGeometry width="50" height="50" relative="1" as="geometry">
            <mxPoint x="50" as="sourcePoint" />
            <mxPoint x="50" y="60" as="targetPoint" />
          </mxGeometry>
        </mxCell>
        <mxCell id="yAEe2rApiO5yWz2X4qgN-143" value="" style="endArrow=none;html=1;rounded=0;" edge="1" parent="yAEe2rApiO5yWz2X4qgN-141">
          <mxGeometry width="50" height="50" relative="1" as="geometry">
            <mxPoint y="60" as="sourcePoint" />
            <mxPoint x="50" y="60" as="targetPoint" />
          </mxGeometry>
        </mxCell>
        <mxCell id="yAEe2rApiO5yWz2X4qgN-144" value="" style="endArrow=none;html=1;rounded=0;" edge="1" parent="yAEe2rApiO5yWz2X4qgN-141">
          <mxGeometry width="50" height="50" relative="1" as="geometry">
            <mxPoint x="30" y="10" as="sourcePoint" />
            <mxPoint x="30" y="50" as="targetPoint" />
          </mxGeometry>
        </mxCell>
        <mxCell id="yAEe2rApiO5yWz2X4qgN-145" value="" style="endArrow=none;html=1;rounded=0;" edge="1" parent="yAEe2rApiO5yWz2X4qgN-141">
          <mxGeometry width="50" height="50" relative="1" as="geometry">
            <mxPoint x="20" y="10" as="sourcePoint" />
            <mxPoint x="20" y="50" as="targetPoint" />
          </mxGeometry>
        </mxCell>
        <mxCell id="yAEe2rApiO5yWz2X4qgN-146" value="" style="endArrow=none;html=1;rounded=0;" edge="1" parent="yAEe2rApiO5yWz2X4qgN-141">
          <mxGeometry width="50" height="50" relative="1" as="geometry">
            <mxPoint x="10" y="10" as="sourcePoint" />
            <mxPoint x="10" y="50" as="targetPoint" />
          </mxGeometry>
        </mxCell>
        <mxCell id="yAEe2rApiO5yWz2X4qgN-147" value="" style="endArrow=none;html=1;rounded=0;" edge="1" parent="yAEe2rApiO5yWz2X4qgN-141">
          <mxGeometry width="50" height="50" relative="1" as="geometry">
            <mxPoint x="40" y="10" as="sourcePoint" />
            <mxPoint x="40" y="50" as="targetPoint" />
          </mxGeometry>
        </mxCell>
        <mxCell id="yAEe2rApiO5yWz2X4qgN-148" value="" style="endArrow=none;html=1;rounded=0;entryX=0;entryY=0.5;entryDx=0;entryDy=0;" edge="1" parent="yAEe2rApiO5yWz2X4qgN-141" target="yAEe2rApiO5yWz2X4qgN-134">
          <mxGeometry width="50" height="50" relative="1" as="geometry">
            <mxPoint x="50" y="30" as="sourcePoint" />
            <mxPoint x="70" y="90" as="targetPoint" />
            <Array as="points">
              <mxPoint x="70" y="30" />
              <mxPoint x="70" />
            </Array>
          </mxGeometry>
        </mxCell>
        <mxCell id="yAEe2rApiO5yWz2X4qgN-149" value="" style="endArrow=none;html=1;rounded=0;" edge="1" parent="1">
          <mxGeometry width="50" height="50" relative="1" as="geometry">
            <mxPoint x="839.03" y="520.01" as="sourcePoint" />
            <mxPoint x="889.03" y="520.01" as="targetPoint" />
          </mxGeometry>
        </mxCell>
        <mxCell id="yAEe2rApiO5yWz2X4qgN-150" value="&lt;font style=&quot;font-size: 8px;&quot;&gt;t&lt;sub&gt;4;20&lt;/sub&gt;&lt;i&gt;&amp;nbsp;= 1.5&lt;br&gt;t&lt;sub&gt;4;50&lt;/sub&gt; = 2&lt;br&gt;&lt;/i&gt;&lt;/font&gt;" style="text;html=1;strokeColor=none;fillColor=none;align=center;verticalAlign=middle;whiteSpace=wrap;rounded=0;" vertex="1" parent="1">
          <mxGeometry x="829" y="580.01" width="60" height="30" as="geometry" />
        </mxCell>
        <mxCell id="yAEe2rApiO5yWz2X4qgN-151" style="edgeStyle=orthogonalEdgeStyle;rounded=0;orthogonalLoop=1;jettySize=auto;html=1;" edge="1" parent="1" source="yAEe2rApiO5yWz2X4qgN-152">
          <mxGeometry relative="1" as="geometry">
            <mxPoint x="710" y="550" as="targetPoint" />
            <Array as="points">
              <mxPoint x="670" y="520.01" />
              <mxPoint x="670" y="550.01" />
            </Array>
          </mxGeometry>
        </mxCell>
        <mxCell id="yAEe2rApiO5yWz2X4qgN-152" value="К3" style="ellipse;whiteSpace=wrap;html=1;container=0;" vertex="1" parent="1">
          <mxGeometry x="610" y="500.01" width="40" height="40" as="geometry" />
        </mxCell>
        <mxCell id="yAEe2rApiO5yWz2X4qgN-153" style="edgeStyle=orthogonalEdgeStyle;rounded=0;orthogonalLoop=1;jettySize=auto;html=1;" edge="1" parent="1" source="yAEe2rApiO5yWz2X4qgN-154">
          <mxGeometry relative="1" as="geometry">
            <mxPoint x="710" y="550" as="targetPoint" />
            <Array as="points">
              <mxPoint x="670" y="580.01" />
              <mxPoint x="670" y="550.01" />
            </Array>
          </mxGeometry>
        </mxCell>
        <mxCell id="yAEe2rApiO5yWz2X4qgN-154" value="К4" style="ellipse;whiteSpace=wrap;html=1;container=0;" vertex="1" parent="1">
          <mxGeometry x="610" y="560.01" width="40" height="40" as="geometry" />
        </mxCell>
        <mxCell id="yAEe2rApiO5yWz2X4qgN-155" value="" style="endArrow=none;html=1;rounded=0;entryX=0;entryY=0.5;entryDx=0;entryDy=0;" edge="1" parent="1">
          <mxGeometry width="50" height="50" relative="1" as="geometry">
            <mxPoint x="590" y="520.01" as="sourcePoint" />
            <mxPoint x="610" y="580.01" as="targetPoint" />
            <Array as="points">
              <mxPoint x="590" y="580.01" />
            </Array>
          </mxGeometry>
        </mxCell>
        <mxCell id="yAEe2rApiO5yWz2X4qgN-156" value="" style="group" vertex="1" connectable="0" parent="1">
          <mxGeometry x="520" y="520.01" width="50" height="60" as="geometry" />
        </mxCell>
        <mxCell id="yAEe2rApiO5yWz2X4qgN-157" value="" style="endArrow=none;html=1;rounded=0;" edge="1" parent="yAEe2rApiO5yWz2X4qgN-156">
          <mxGeometry width="50" height="50" relative="1" as="geometry">
            <mxPoint x="50" as="sourcePoint" />
            <mxPoint x="50" y="60" as="targetPoint" />
          </mxGeometry>
        </mxCell>
        <mxCell id="yAEe2rApiO5yWz2X4qgN-158" value="" style="endArrow=none;html=1;rounded=0;" edge="1" parent="yAEe2rApiO5yWz2X4qgN-156">
          <mxGeometry width="50" height="50" relative="1" as="geometry">
            <mxPoint y="60" as="sourcePoint" />
            <mxPoint x="50" y="60" as="targetPoint" />
          </mxGeometry>
        </mxCell>
        <mxCell id="yAEe2rApiO5yWz2X4qgN-159" value="" style="endArrow=none;html=1;rounded=0;" edge="1" parent="yAEe2rApiO5yWz2X4qgN-156">
          <mxGeometry width="50" height="50" relative="1" as="geometry">
            <mxPoint x="30" y="10" as="sourcePoint" />
            <mxPoint x="30" y="50" as="targetPoint" />
          </mxGeometry>
        </mxCell>
        <mxCell id="yAEe2rApiO5yWz2X4qgN-160" value="" style="endArrow=none;html=1;rounded=0;" edge="1" parent="yAEe2rApiO5yWz2X4qgN-156">
          <mxGeometry width="50" height="50" relative="1" as="geometry">
            <mxPoint x="20" y="10" as="sourcePoint" />
            <mxPoint x="20" y="50" as="targetPoint" />
          </mxGeometry>
        </mxCell>
        <mxCell id="yAEe2rApiO5yWz2X4qgN-161" value="" style="endArrow=none;html=1;rounded=0;" edge="1" parent="yAEe2rApiO5yWz2X4qgN-156">
          <mxGeometry width="50" height="50" relative="1" as="geometry">
            <mxPoint x="10" y="10" as="sourcePoint" />
            <mxPoint x="10" y="50" as="targetPoint" />
          </mxGeometry>
        </mxCell>
        <mxCell id="yAEe2rApiO5yWz2X4qgN-162" value="" style="endArrow=none;html=1;rounded=0;" edge="1" parent="yAEe2rApiO5yWz2X4qgN-156">
          <mxGeometry width="50" height="50" relative="1" as="geometry">
            <mxPoint x="40" y="10" as="sourcePoint" />
            <mxPoint x="40" y="50" as="targetPoint" />
          </mxGeometry>
        </mxCell>
        <mxCell id="yAEe2rApiO5yWz2X4qgN-163" value="" style="endArrow=none;html=1;rounded=0;entryX=0;entryY=0.5;entryDx=0;entryDy=0;" edge="1" parent="yAEe2rApiO5yWz2X4qgN-156" target="yAEe2rApiO5yWz2X4qgN-152">
          <mxGeometry width="50" height="50" relative="1" as="geometry">
            <mxPoint x="50" y="30" as="sourcePoint" />
            <mxPoint x="70" y="90" as="targetPoint" />
            <Array as="points">
              <mxPoint x="70" y="30" />
              <mxPoint x="70" />
            </Array>
          </mxGeometry>
        </mxCell>
        <mxCell id="yAEe2rApiO5yWz2X4qgN-164" value="" style="endArrow=none;html=1;rounded=0;" edge="1" parent="1">
          <mxGeometry width="50" height="50" relative="1" as="geometry">
            <mxPoint x="520" y="520.01" as="sourcePoint" />
            <mxPoint x="570" y="520.01" as="targetPoint" />
          </mxGeometry>
        </mxCell>
        <mxCell id="yAEe2rApiO5yWz2X4qgN-165" value="2" style="text;html=1;strokeColor=none;fillColor=none;align=center;verticalAlign=middle;whiteSpace=wrap;rounded=0;" vertex="1" parent="1">
          <mxGeometry x="380" y="490.01" width="60" height="30" as="geometry" />
        </mxCell>
        <mxCell id="yAEe2rApiO5yWz2X4qgN-166" style="edgeStyle=orthogonalEdgeStyle;rounded=0;orthogonalLoop=1;jettySize=auto;html=1;endArrow=none;endFill=0;" edge="1" parent="1" source="yAEe2rApiO5yWz2X4qgN-167">
          <mxGeometry relative="1" as="geometry">
            <mxPoint x="760.03" y="550.01" as="targetPoint" />
          </mxGeometry>
        </mxCell>
        <mxCell id="yAEe2rApiO5yWz2X4qgN-167" value="K2" style="ellipse;whiteSpace=wrap;html=1;container=0;" vertex="1" parent="1">
          <mxGeometry x="780.03" y="530.01" width="40" height="40" as="geometry" />
        </mxCell>
        <mxCell id="yAEe2rApiO5yWz2X4qgN-168" value="&lt;font style=&quot;font-size: 8px;&quot;&gt;t&lt;sub&gt;3;20&lt;/sub&gt;&lt;i&gt;&amp;nbsp;= exp(5)&lt;br&gt;t&lt;sub&gt;3;50&lt;/sub&gt; = exp(4)&lt;br&gt;&lt;/i&gt;&lt;/font&gt;" style="text;html=1;strokeColor=none;fillColor=none;align=center;verticalAlign=middle;whiteSpace=wrap;rounded=0;" vertex="1" parent="1">
          <mxGeometry x="700" y="580" width="60" height="30" as="geometry" />
        </mxCell>
        <mxCell id="yAEe2rApiO5yWz2X4qgN-169" value="" style="endArrow=none;html=1;rounded=0;" edge="1" parent="1">
          <mxGeometry width="50" height="50" relative="1" as="geometry">
            <mxPoint x="710.03" y="519.68" as="sourcePoint" />
            <mxPoint x="760.03" y="519.68" as="targetPoint" />
          </mxGeometry>
        </mxCell>
        <mxCell id="yAEe2rApiO5yWz2X4qgN-170" value="" style="endArrow=none;html=1;rounded=0;" edge="1" parent="1">
          <mxGeometry width="50" height="50" relative="1" as="geometry">
            <mxPoint x="760.03" y="520.01" as="sourcePoint" />
            <mxPoint x="760.03" y="580.01" as="targetPoint" />
          </mxGeometry>
        </mxCell>
        <mxCell id="yAEe2rApiO5yWz2X4qgN-171" value="" style="endArrow=none;html=1;rounded=0;" edge="1" parent="1">
          <mxGeometry width="50" height="50" relative="1" as="geometry">
            <mxPoint x="710.03" y="580.01" as="sourcePoint" />
            <mxPoint x="760.03" y="580.01" as="targetPoint" />
          </mxGeometry>
        </mxCell>
        <mxCell id="yAEe2rApiO5yWz2X4qgN-172" value="" style="endArrow=none;html=1;rounded=0;" edge="1" parent="1">
          <mxGeometry width="50" height="50" relative="1" as="geometry">
            <mxPoint x="740.03" y="530.01" as="sourcePoint" />
            <mxPoint x="740.03" y="570.01" as="targetPoint" />
          </mxGeometry>
        </mxCell>
        <mxCell id="yAEe2rApiO5yWz2X4qgN-173" value="" style="endArrow=none;html=1;rounded=0;" edge="1" parent="1">
          <mxGeometry width="50" height="50" relative="1" as="geometry">
            <mxPoint x="730.03" y="530.01" as="sourcePoint" />
            <mxPoint x="730.03" y="570.01" as="targetPoint" />
          </mxGeometry>
        </mxCell>
        <mxCell id="yAEe2rApiO5yWz2X4qgN-174" value="" style="endArrow=none;html=1;rounded=0;" edge="1" parent="1">
          <mxGeometry width="50" height="50" relative="1" as="geometry">
            <mxPoint x="720.03" y="530.01" as="sourcePoint" />
            <mxPoint x="720.03" y="570.01" as="targetPoint" />
          </mxGeometry>
        </mxCell>
        <mxCell id="yAEe2rApiO5yWz2X4qgN-175" value="" style="endArrow=none;html=1;rounded=0;" edge="1" parent="1">
          <mxGeometry width="50" height="50" relative="1" as="geometry">
            <mxPoint x="750.03" y="530.01" as="sourcePoint" />
            <mxPoint x="750.03" y="570.01" as="targetPoint" />
          </mxGeometry>
        </mxCell>
        <mxCell id="yAEe2rApiO5yWz2X4qgN-176" style="edgeStyle=orthogonalEdgeStyle;rounded=0;orthogonalLoop=1;jettySize=auto;html=1;" edge="1" parent="1" source="yAEe2rApiO5yWz2X4qgN-177">
          <mxGeometry relative="1" as="geometry">
            <mxPoint x="519.97" y="400" as="targetPoint" />
          </mxGeometry>
        </mxCell>
        <mxCell id="yAEe2rApiO5yWz2X4qgN-177" value="K1" style="ellipse;whiteSpace=wrap;html=1;container=0;" vertex="1" parent="1">
          <mxGeometry x="459.97" y="380" width="40" height="40" as="geometry" />
        </mxCell>
        <mxCell id="yAEe2rApiO5yWz2X4qgN-178" value="" style="endArrow=none;html=1;rounded=0;" edge="1" parent="1">
          <mxGeometry width="50" height="50" relative="1" as="geometry">
            <mxPoint x="389.97" y="369.86" as="sourcePoint" />
            <mxPoint x="439.97" y="369.86" as="targetPoint" />
          </mxGeometry>
        </mxCell>
        <mxCell id="yAEe2rApiO5yWz2X4qgN-179" value="" style="endArrow=none;html=1;rounded=0;" edge="1" parent="1">
          <mxGeometry width="50" height="50" relative="1" as="geometry">
            <mxPoint x="439.97" y="369.86" as="sourcePoint" />
            <mxPoint x="439.97" y="429.86" as="targetPoint" />
          </mxGeometry>
        </mxCell>
        <mxCell id="yAEe2rApiO5yWz2X4qgN-180" value="" style="endArrow=none;html=1;rounded=0;" edge="1" parent="1">
          <mxGeometry width="50" height="50" relative="1" as="geometry">
            <mxPoint x="389.97" y="429.86" as="sourcePoint" />
            <mxPoint x="439.97" y="429.86" as="targetPoint" />
          </mxGeometry>
        </mxCell>
        <mxCell id="yAEe2rApiO5yWz2X4qgN-181" value="" style="endArrow=none;html=1;rounded=0;" edge="1" parent="1">
          <mxGeometry width="50" height="50" relative="1" as="geometry">
            <mxPoint x="419.97" y="379.86" as="sourcePoint" />
            <mxPoint x="419.97" y="419.86" as="targetPoint" />
          </mxGeometry>
        </mxCell>
        <mxCell id="yAEe2rApiO5yWz2X4qgN-182" value="" style="endArrow=none;html=1;rounded=0;" edge="1" parent="1">
          <mxGeometry width="50" height="50" relative="1" as="geometry">
            <mxPoint x="409.97" y="379.86" as="sourcePoint" />
            <mxPoint x="409.97" y="419.86" as="targetPoint" />
          </mxGeometry>
        </mxCell>
        <mxCell id="yAEe2rApiO5yWz2X4qgN-183" value="" style="endArrow=none;html=1;rounded=0;" edge="1" parent="1">
          <mxGeometry width="50" height="50" relative="1" as="geometry">
            <mxPoint x="399.97" y="379.86" as="sourcePoint" />
            <mxPoint x="399.97" y="419.86" as="targetPoint" />
          </mxGeometry>
        </mxCell>
        <mxCell id="yAEe2rApiO5yWz2X4qgN-184" value="" style="endArrow=none;html=1;rounded=0;" edge="1" parent="1">
          <mxGeometry width="50" height="50" relative="1" as="geometry">
            <mxPoint x="429.97" y="379.86" as="sourcePoint" />
            <mxPoint x="429.97" y="419.86" as="targetPoint" />
          </mxGeometry>
        </mxCell>
        <mxCell id="yAEe2rApiO5yWz2X4qgN-185" style="edgeStyle=orthogonalEdgeStyle;rounded=0;orthogonalLoop=1;jettySize=auto;html=1;exitX=1;exitY=0.5;exitDx=0;exitDy=0;" edge="1" parent="1" source="yAEe2rApiO5yWz2X4qgN-220">
          <mxGeometry relative="1" as="geometry">
            <mxPoint x="840" y="400" as="targetPoint" />
            <Array as="points">
              <mxPoint x="820" y="400" />
              <mxPoint x="820" y="400" />
            </Array>
          </mxGeometry>
        </mxCell>
        <mxCell id="yAEe2rApiO5yWz2X4qgN-186" style="edgeStyle=orthogonalEdgeStyle;rounded=0;orthogonalLoop=1;jettySize=auto;html=1;" edge="1" parent="1" source="yAEe2rApiO5yWz2X4qgN-187">
          <mxGeometry relative="1" as="geometry">
            <mxPoint x="389.97" y="400" as="targetPoint" />
            <Array as="points">
              <mxPoint x="990" y="370" />
              <mxPoint x="990" y="400" />
              <mxPoint x="1010" y="400" />
              <mxPoint x="1010" y="480" />
              <mxPoint x="360" y="480" />
              <mxPoint x="360" y="400" />
            </Array>
          </mxGeometry>
        </mxCell>
        <mxCell id="yAEe2rApiO5yWz2X4qgN-187" value="К1" style="ellipse;whiteSpace=wrap;html=1;container=0;" vertex="1" parent="1">
          <mxGeometry x="929" y="350" width="40" height="40" as="geometry" />
        </mxCell>
        <mxCell id="yAEe2rApiO5yWz2X4qgN-188" style="edgeStyle=orthogonalEdgeStyle;rounded=0;orthogonalLoop=1;jettySize=auto;html=1;" edge="1" parent="1" source="yAEe2rApiO5yWz2X4qgN-189">
          <mxGeometry relative="1" as="geometry">
            <mxPoint x="389.97" y="400" as="targetPoint" />
            <Array as="points">
              <mxPoint x="990" y="430" />
              <mxPoint x="990" y="400" />
              <mxPoint x="1010" y="400" />
              <mxPoint x="1010" y="480" />
              <mxPoint x="360" y="480" />
              <mxPoint x="360" y="400" />
            </Array>
          </mxGeometry>
        </mxCell>
        <mxCell id="yAEe2rApiO5yWz2X4qgN-189" value="К2" style="ellipse;whiteSpace=wrap;html=1;container=0;" vertex="1" parent="1">
          <mxGeometry x="929" y="410" width="40" height="40" as="geometry" />
        </mxCell>
        <mxCell id="yAEe2rApiO5yWz2X4qgN-190" value="" style="endArrow=none;html=1;rounded=0;entryX=0;entryY=0.5;entryDx=0;entryDy=0;" edge="1" parent="1">
          <mxGeometry width="50" height="50" relative="1" as="geometry">
            <mxPoint x="909" y="370" as="sourcePoint" />
            <mxPoint x="929" y="430" as="targetPoint" />
            <Array as="points">
              <mxPoint x="909" y="430" />
            </Array>
          </mxGeometry>
        </mxCell>
        <mxCell id="yAEe2rApiO5yWz2X4qgN-191" value="&lt;font style=&quot;font-size: 8px;&quot;&gt;t&lt;sub&gt;1;20&lt;/sub&gt;&lt;i&gt;&amp;nbsp;= exp(5)&lt;br&gt;t&lt;sub&gt;1;50&lt;/sub&gt; = exp(10)&lt;br&gt;&lt;/i&gt;&lt;/font&gt;" style="text;html=1;strokeColor=none;fillColor=none;align=center;verticalAlign=middle;whiteSpace=wrap;rounded=0;" vertex="1" parent="1">
          <mxGeometry x="379.97" y="430" width="60" height="30" as="geometry" />
        </mxCell>
        <mxCell id="yAEe2rApiO5yWz2X4qgN-192" value="&lt;font style=&quot;font-size: 8px;&quot;&gt;t&lt;sub&gt;2;20&lt;/sub&gt;&lt;i&gt;&amp;nbsp;= 2.5&lt;br&gt;t&lt;sub&gt;2;50&lt;/sub&gt; = 3&lt;br&gt;&lt;/i&gt;&lt;/font&gt;" style="text;html=1;strokeColor=none;fillColor=none;align=center;verticalAlign=middle;whiteSpace=wrap;rounded=0;" vertex="1" parent="1">
          <mxGeometry x="509.97" y="430" width="60" height="30" as="geometry" />
        </mxCell>
        <mxCell id="yAEe2rApiO5yWz2X4qgN-193" value="" style="endArrow=none;html=1;rounded=0;entryX=0;entryY=0.5;entryDx=0;entryDy=0;" edge="1" parent="1" target="yAEe2rApiO5yWz2X4qgN-177">
          <mxGeometry width="50" height="50" relative="1" as="geometry">
            <mxPoint x="439.97" y="400" as="sourcePoint" />
            <mxPoint x="469.97" y="320" as="targetPoint" />
            <Array as="points">
              <mxPoint x="439.97" y="400" />
            </Array>
          </mxGeometry>
        </mxCell>
        <mxCell id="yAEe2rApiO5yWz2X4qgN-194" value="" style="group" vertex="1" connectable="0" parent="1">
          <mxGeometry x="839" y="370" width="50" height="60" as="geometry" />
        </mxCell>
        <mxCell id="yAEe2rApiO5yWz2X4qgN-195" value="" style="endArrow=none;html=1;rounded=0;" edge="1" parent="yAEe2rApiO5yWz2X4qgN-194">
          <mxGeometry width="50" height="50" relative="1" as="geometry">
            <mxPoint x="50" as="sourcePoint" />
            <mxPoint x="50" y="60" as="targetPoint" />
          </mxGeometry>
        </mxCell>
        <mxCell id="yAEe2rApiO5yWz2X4qgN-196" value="" style="endArrow=none;html=1;rounded=0;" edge="1" parent="yAEe2rApiO5yWz2X4qgN-194">
          <mxGeometry width="50" height="50" relative="1" as="geometry">
            <mxPoint y="60" as="sourcePoint" />
            <mxPoint x="50" y="60" as="targetPoint" />
          </mxGeometry>
        </mxCell>
        <mxCell id="yAEe2rApiO5yWz2X4qgN-197" value="" style="endArrow=none;html=1;rounded=0;" edge="1" parent="yAEe2rApiO5yWz2X4qgN-194">
          <mxGeometry width="50" height="50" relative="1" as="geometry">
            <mxPoint x="30" y="10" as="sourcePoint" />
            <mxPoint x="30" y="50" as="targetPoint" />
          </mxGeometry>
        </mxCell>
        <mxCell id="yAEe2rApiO5yWz2X4qgN-198" value="" style="endArrow=none;html=1;rounded=0;" edge="1" parent="yAEe2rApiO5yWz2X4qgN-194">
          <mxGeometry width="50" height="50" relative="1" as="geometry">
            <mxPoint x="20" y="10" as="sourcePoint" />
            <mxPoint x="20" y="50" as="targetPoint" />
          </mxGeometry>
        </mxCell>
        <mxCell id="yAEe2rApiO5yWz2X4qgN-199" value="" style="endArrow=none;html=1;rounded=0;" edge="1" parent="yAEe2rApiO5yWz2X4qgN-194">
          <mxGeometry width="50" height="50" relative="1" as="geometry">
            <mxPoint x="10" y="10" as="sourcePoint" />
            <mxPoint x="10" y="50" as="targetPoint" />
          </mxGeometry>
        </mxCell>
        <mxCell id="yAEe2rApiO5yWz2X4qgN-200" value="" style="endArrow=none;html=1;rounded=0;" edge="1" parent="yAEe2rApiO5yWz2X4qgN-194">
          <mxGeometry width="50" height="50" relative="1" as="geometry">
            <mxPoint x="40" y="10" as="sourcePoint" />
            <mxPoint x="40" y="50" as="targetPoint" />
          </mxGeometry>
        </mxCell>
        <mxCell id="yAEe2rApiO5yWz2X4qgN-201" value="" style="endArrow=none;html=1;rounded=0;entryX=0;entryY=0.5;entryDx=0;entryDy=0;" edge="1" parent="yAEe2rApiO5yWz2X4qgN-194" target="yAEe2rApiO5yWz2X4qgN-187">
          <mxGeometry width="50" height="50" relative="1" as="geometry">
            <mxPoint x="50" y="30" as="sourcePoint" />
            <mxPoint x="70" y="90" as="targetPoint" />
            <Array as="points">
              <mxPoint x="70" y="30" />
              <mxPoint x="70" />
            </Array>
          </mxGeometry>
        </mxCell>
        <mxCell id="yAEe2rApiO5yWz2X4qgN-202" value="" style="endArrow=none;html=1;rounded=0;" edge="1" parent="1">
          <mxGeometry width="50" height="50" relative="1" as="geometry">
            <mxPoint x="839" y="370" as="sourcePoint" />
            <mxPoint x="889" y="370" as="targetPoint" />
          </mxGeometry>
        </mxCell>
        <mxCell id="yAEe2rApiO5yWz2X4qgN-203" value="&lt;font style=&quot;font-size: 8px;&quot;&gt;t&lt;sub&gt;4;20&lt;/sub&gt;&lt;i&gt;&amp;nbsp;= 1.5&lt;br&gt;t&lt;sub&gt;4;50&lt;/sub&gt; = 2&lt;br&gt;&lt;/i&gt;&lt;/font&gt;" style="text;html=1;strokeColor=none;fillColor=none;align=center;verticalAlign=middle;whiteSpace=wrap;rounded=0;" vertex="1" parent="1">
          <mxGeometry x="829" y="430" width="60" height="30" as="geometry" />
        </mxCell>
        <mxCell id="yAEe2rApiO5yWz2X4qgN-204" style="edgeStyle=orthogonalEdgeStyle;rounded=0;orthogonalLoop=1;jettySize=auto;html=1;" edge="1" parent="1" source="yAEe2rApiO5yWz2X4qgN-205">
          <mxGeometry relative="1" as="geometry">
            <mxPoint x="710" y="400" as="targetPoint" />
            <Array as="points">
              <mxPoint x="669.97" y="370" />
              <mxPoint x="669.97" y="400" />
            </Array>
          </mxGeometry>
        </mxCell>
        <mxCell id="yAEe2rApiO5yWz2X4qgN-205" value="К1" style="ellipse;whiteSpace=wrap;html=1;container=0;" vertex="1" parent="1">
          <mxGeometry x="609.97" y="350" width="40" height="40" as="geometry" />
        </mxCell>
        <mxCell id="yAEe2rApiO5yWz2X4qgN-206" style="edgeStyle=orthogonalEdgeStyle;rounded=0;orthogonalLoop=1;jettySize=auto;html=1;" edge="1" parent="1" source="yAEe2rApiO5yWz2X4qgN-207">
          <mxGeometry relative="1" as="geometry">
            <mxPoint x="710" y="400" as="targetPoint" />
            <Array as="points">
              <mxPoint x="669.97" y="430" />
              <mxPoint x="669.97" y="400" />
            </Array>
          </mxGeometry>
        </mxCell>
        <mxCell id="yAEe2rApiO5yWz2X4qgN-207" value="К2" style="ellipse;whiteSpace=wrap;html=1;container=0;" vertex="1" parent="1">
          <mxGeometry x="609.97" y="410" width="40" height="40" as="geometry" />
        </mxCell>
        <mxCell id="yAEe2rApiO5yWz2X4qgN-208" value="" style="endArrow=none;html=1;rounded=0;entryX=0;entryY=0.5;entryDx=0;entryDy=0;" edge="1" parent="1">
          <mxGeometry width="50" height="50" relative="1" as="geometry">
            <mxPoint x="589.97" y="370" as="sourcePoint" />
            <mxPoint x="609.97" y="430" as="targetPoint" />
            <Array as="points">
              <mxPoint x="589.97" y="430" />
            </Array>
          </mxGeometry>
        </mxCell>
        <mxCell id="yAEe2rApiO5yWz2X4qgN-209" value="" style="group" vertex="1" connectable="0" parent="1">
          <mxGeometry x="519.97" y="370" width="50" height="60" as="geometry" />
        </mxCell>
        <mxCell id="yAEe2rApiO5yWz2X4qgN-210" value="" style="endArrow=none;html=1;rounded=0;" edge="1" parent="yAEe2rApiO5yWz2X4qgN-209">
          <mxGeometry width="50" height="50" relative="1" as="geometry">
            <mxPoint x="50" as="sourcePoint" />
            <mxPoint x="50" y="60" as="targetPoint" />
          </mxGeometry>
        </mxCell>
        <mxCell id="yAEe2rApiO5yWz2X4qgN-211" value="" style="endArrow=none;html=1;rounded=0;" edge="1" parent="yAEe2rApiO5yWz2X4qgN-209">
          <mxGeometry width="50" height="50" relative="1" as="geometry">
            <mxPoint y="60" as="sourcePoint" />
            <mxPoint x="50" y="60" as="targetPoint" />
          </mxGeometry>
        </mxCell>
        <mxCell id="yAEe2rApiO5yWz2X4qgN-212" value="" style="endArrow=none;html=1;rounded=0;" edge="1" parent="yAEe2rApiO5yWz2X4qgN-209">
          <mxGeometry width="50" height="50" relative="1" as="geometry">
            <mxPoint x="30" y="10" as="sourcePoint" />
            <mxPoint x="30" y="50" as="targetPoint" />
          </mxGeometry>
        </mxCell>
        <mxCell id="yAEe2rApiO5yWz2X4qgN-213" value="" style="endArrow=none;html=1;rounded=0;" edge="1" parent="yAEe2rApiO5yWz2X4qgN-209">
          <mxGeometry width="50" height="50" relative="1" as="geometry">
            <mxPoint x="20" y="10" as="sourcePoint" />
            <mxPoint x="20" y="50" as="targetPoint" />
          </mxGeometry>
        </mxCell>
        <mxCell id="yAEe2rApiO5yWz2X4qgN-214" value="" style="endArrow=none;html=1;rounded=0;" edge="1" parent="yAEe2rApiO5yWz2X4qgN-209">
          <mxGeometry width="50" height="50" relative="1" as="geometry">
            <mxPoint x="10" y="10" as="sourcePoint" />
            <mxPoint x="10" y="50" as="targetPoint" />
          </mxGeometry>
        </mxCell>
        <mxCell id="yAEe2rApiO5yWz2X4qgN-215" value="" style="endArrow=none;html=1;rounded=0;" edge="1" parent="yAEe2rApiO5yWz2X4qgN-209">
          <mxGeometry width="50" height="50" relative="1" as="geometry">
            <mxPoint x="40" y="10" as="sourcePoint" />
            <mxPoint x="40" y="50" as="targetPoint" />
          </mxGeometry>
        </mxCell>
        <mxCell id="yAEe2rApiO5yWz2X4qgN-216" value="" style="endArrow=none;html=1;rounded=0;entryX=0;entryY=0.5;entryDx=0;entryDy=0;" edge="1" parent="yAEe2rApiO5yWz2X4qgN-209" target="yAEe2rApiO5yWz2X4qgN-205">
          <mxGeometry width="50" height="50" relative="1" as="geometry">
            <mxPoint x="50" y="30" as="sourcePoint" />
            <mxPoint x="70" y="90" as="targetPoint" />
            <Array as="points">
              <mxPoint x="70" y="30" />
              <mxPoint x="70" />
            </Array>
          </mxGeometry>
        </mxCell>
        <mxCell id="yAEe2rApiO5yWz2X4qgN-217" value="" style="endArrow=none;html=1;rounded=0;" edge="1" parent="1">
          <mxGeometry width="50" height="50" relative="1" as="geometry">
            <mxPoint x="519.97" y="370" as="sourcePoint" />
            <mxPoint x="569.97" y="370" as="targetPoint" />
          </mxGeometry>
        </mxCell>
        <mxCell id="yAEe2rApiO5yWz2X4qgN-218" value="2" style="text;html=1;strokeColor=none;fillColor=none;align=center;verticalAlign=middle;whiteSpace=wrap;rounded=0;" vertex="1" parent="1">
          <mxGeometry x="379.97" y="340" width="60" height="30" as="geometry" />
        </mxCell>
        <mxCell id="yAEe2rApiO5yWz2X4qgN-219" style="edgeStyle=orthogonalEdgeStyle;rounded=0;orthogonalLoop=1;jettySize=auto;html=1;endArrow=none;endFill=0;" edge="1" parent="1" source="yAEe2rApiO5yWz2X4qgN-220">
          <mxGeometry relative="1" as="geometry">
            <mxPoint x="760" y="400" as="targetPoint" />
          </mxGeometry>
        </mxCell>
        <mxCell id="yAEe2rApiO5yWz2X4qgN-220" value="K1" style="ellipse;whiteSpace=wrap;html=1;container=0;" vertex="1" parent="1">
          <mxGeometry x="780" y="380" width="40" height="40" as="geometry" />
        </mxCell>
        <mxCell id="yAEe2rApiO5yWz2X4qgN-221" value="&lt;font style=&quot;font-size: 8px;&quot;&gt;t&lt;sub&gt;3;20&lt;/sub&gt;&lt;i&gt;&amp;nbsp;= exp(5)&lt;br&gt;t&lt;sub&gt;3;50&lt;/sub&gt; = exp(4)&lt;br&gt;&lt;/i&gt;&lt;/font&gt;" style="text;html=1;strokeColor=none;fillColor=none;align=center;verticalAlign=middle;whiteSpace=wrap;rounded=0;" vertex="1" parent="1">
          <mxGeometry x="700" y="430" width="60" height="30" as="geometry" />
        </mxCell>
        <mxCell id="yAEe2rApiO5yWz2X4qgN-222" value="" style="endArrow=none;html=1;rounded=0;" edge="1" parent="1">
          <mxGeometry width="50" height="50" relative="1" as="geometry">
            <mxPoint x="710" y="369.66999999999996" as="sourcePoint" />
            <mxPoint x="760" y="369.66999999999996" as="targetPoint" />
          </mxGeometry>
        </mxCell>
        <mxCell id="yAEe2rApiO5yWz2X4qgN-223" value="" style="endArrow=none;html=1;rounded=0;" edge="1" parent="1">
          <mxGeometry width="50" height="50" relative="1" as="geometry">
            <mxPoint x="760" y="370" as="sourcePoint" />
            <mxPoint x="760" y="430" as="targetPoint" />
          </mxGeometry>
        </mxCell>
        <mxCell id="yAEe2rApiO5yWz2X4qgN-224" value="" style="endArrow=none;html=1;rounded=0;" edge="1" parent="1">
          <mxGeometry width="50" height="50" relative="1" as="geometry">
            <mxPoint x="710" y="430" as="sourcePoint" />
            <mxPoint x="760" y="430" as="targetPoint" />
          </mxGeometry>
        </mxCell>
        <mxCell id="yAEe2rApiO5yWz2X4qgN-225" value="" style="endArrow=none;html=1;rounded=0;" edge="1" parent="1">
          <mxGeometry width="50" height="50" relative="1" as="geometry">
            <mxPoint x="740" y="380" as="sourcePoint" />
            <mxPoint x="740" y="420" as="targetPoint" />
          </mxGeometry>
        </mxCell>
        <mxCell id="yAEe2rApiO5yWz2X4qgN-226" value="" style="endArrow=none;html=1;rounded=0;" edge="1" parent="1">
          <mxGeometry width="50" height="50" relative="1" as="geometry">
            <mxPoint x="730" y="380" as="sourcePoint" />
            <mxPoint x="730" y="420" as="targetPoint" />
          </mxGeometry>
        </mxCell>
        <mxCell id="yAEe2rApiO5yWz2X4qgN-227" value="" style="endArrow=none;html=1;rounded=0;" edge="1" parent="1">
          <mxGeometry width="50" height="50" relative="1" as="geometry">
            <mxPoint x="720" y="380" as="sourcePoint" />
            <mxPoint x="720" y="420" as="targetPoint" />
          </mxGeometry>
        </mxCell>
        <mxCell id="yAEe2rApiO5yWz2X4qgN-228" value="" style="endArrow=none;html=1;rounded=0;" edge="1" parent="1">
          <mxGeometry width="50" height="50" relative="1" as="geometry">
            <mxPoint x="750" y="380" as="sourcePoint" />
            <mxPoint x="750" y="420" as="targetPoint" />
          </mxGeometry>
        </mxCell>
        <mxCell id="yAEe2rApiO5yWz2X4qgN-229" value="" style="triangle;whiteSpace=wrap;html=1;fillColor=#999999;" vertex="1" parent="1">
          <mxGeometry x="681" y="540.01" width="10" height="20" as="geometry" />
        </mxCell>
        <mxCell id="yAEe2rApiO5yWz2X4qgN-230" value="" style="triangle;whiteSpace=wrap;html=1;fillColor=#999999;" vertex="1" parent="1">
          <mxGeometry x="681" y="690" width="10" height="20" as="geometry" />
        </mxCell>
        <mxCell id="yAEe2rApiO5yWz2X4qgN-231" value="" style="triangle;whiteSpace=wrap;html=1;fillColor=#999999;" vertex="1" parent="1">
          <mxGeometry x="681" y="390.01" width="10" height="20" as="geometry" />
        </mxCell>
        <mxCell id="yAEe2rApiO5yWz2X4qgN-233" value="" style="endArrow=classic;html=1;rounded=0;dashed=1;" edge="1" parent="1">
          <mxGeometry width="50" height="50" relative="1" as="geometry">
            <mxPoint x="700" y="570" as="sourcePoint" />
            <mxPoint x="700" y="680" as="targetPoint" />
          </mxGeometry>
        </mxCell>
        <mxCell id="yAEe2rApiO5yWz2X4qgN-234" value="" style="endArrow=classic;html=1;rounded=0;dashed=1;" edge="1" parent="1">
          <mxGeometry width="50" height="50" relative="1" as="geometry">
            <mxPoint x="700" y="530" as="sourcePoint" />
            <mxPoint x="700" y="420" as="targetPoint" />
          </mxGeometry>
        </mxCell>
        <mxCell id="yAEe2rApiO5yWz2X4qgN-235" value="" style="endArrow=none;html=1;rounded=0;dashed=1;endFill=0;startArrow=classic;startFill=1;" edge="1" parent="1">
          <mxGeometry width="50" height="50" relative="1" as="geometry">
            <mxPoint x="690" y="570.01" as="sourcePoint" />
            <mxPoint x="691" y="680.02" as="targetPoint" />
          </mxGeometry>
        </mxCell>
        <mxCell id="yAEe2rApiO5yWz2X4qgN-236" value="" style="endArrow=none;html=1;rounded=0;dashed=1;endFill=0;startArrow=classic;startFill=1;" edge="1" parent="1">
          <mxGeometry width="50" height="50" relative="1" as="geometry">
            <mxPoint x="691" y="530.01" as="sourcePoint" />
            <mxPoint x="690" y="420.01" as="targetPoint" />
          </mxGeometry>
        </mxCell>
        <mxCell id="yAEe2rApiO5yWz2X4qgN-237" value="" style="endArrow=none;html=1;rounded=0;dashed=1;endFill=0;startArrow=classic;startFill=1;" edge="1" parent="1">
          <mxGeometry width="50" height="50" relative="1" as="geometry">
            <mxPoint x="670" y="440" as="sourcePoint" />
            <mxPoint x="670" y="660" as="targetPoint" />
            <Array as="points">
              <mxPoint x="650" y="550" />
            </Array>
          </mxGeometry>
        </mxCell>
        <mxCell id="yAEe2rApiO5yWz2X4qgN-238" value="" style="endArrow=classic;html=1;rounded=0;dashed=1;endFill=1;startArrow=none;startFill=0;" edge="1" parent="1">
          <mxGeometry width="50" height="50" relative="1" as="geometry">
            <mxPoint x="680" y="420" as="sourcePoint" />
            <mxPoint x="680" y="680" as="targetPoint" />
            <Array as="points">
              <mxPoint x="660" y="550" />
            </Array>
          </mxGeometry>
        </mxCell>
      </root>
    </mxGraphModel>
  </diagram>
</mxfile>
